<!DOCTYPE svg PUBLIC "-//W3C//DTD SVG 20010904//EN"
 "http://www.w3.org/TR/2001/REC-SVG-20010904/DTD/svg10.dtd">
<svg version="1.0" xmlns="http://www.w3.org/2000/svg"
 width="1418.000000pt" height="1426.000000pt" viewBox="0 0 1418.000000 1426.000000"
 preserveAspectRatio="xMidYMid meet">

<g transform="translate(0.000000,1426.000000) scale(0.100000,-0.100000)"
fill="#000000" stroke="none">
<path d="M9420 9805 c0 -79 -111 -120 -158 -60 -17 21 -20 22 -52 9 -26 -11
-31 -17 -22 -26 17 -17 15 -59 -3 -85 -23 -33 -65 -43 -111 -27 -31 11 -41 11
-52 1 -10 -11 -8 -21 9 -53 20 -37 21 -41 6 -77 -18 -43 -55 -61 -105 -53 -27
4 -35 1 -43 -18 -9 -19 -6 -27 20 -54 53 -53 33 -132 -39 -153 -31 -10 -40
-17 -40 -35 0 -15 8 -25 23 -29 32 -10 64 -43 72 -72 9 -36 -12 -81 -45 -98
-22 -11 -26 -19 -23 -40 5 -21 11 -25 40 -25 48 0 72 -16 89 -57 14 -32 13
-38 -7 -80 -19 -40 -20 -46 -6 -60 12 -12 19 -13 37 -3 32 17 87 4 107 -26 17
-27 22 -67 10 -100 -6 -16 -2 -23 19 -32 22 -11 28 -9 42 8 9 11 34 23 54 27
32 5 41 1 68 -25 22 -23 30 -40 30 -66 0 -24 5 -36 14 -36 8 0 21 -3 30 -6 10
-4 17 2 22 20 14 58 95 76 139 31 14 -13 25 -33 25 -45 0 -21 10 -24 48 -14
16 5 22 14 22 36 0 73 97 105 149 49 27 -29 28 -29 52 -13 20 15 24 24 21 63
-3 42 0 49 29 74 36 29 77 29 110 -1 15 -14 18 -13 33 7 14 20 14 26 1 46 -43
65 9 152 85 141 26 -4 34 0 42 17 8 18 4 27 -26 57 -40 40 -43 55 -21 97 15
31 33 41 70 41 15 0 25 7 29 23 11 41 7 57 -14 57 -32 0 -70 44 -70 80 0 30
37 80 59 80 5 0 5 14 -2 36 -9 30 -14 34 -33 30 -80 -20 -138 80 -81 138 l23
23 -20 25 c-19 22 -23 23 -46 12 -69 -37 -148 46 -110 116 8 14 5 21 -15 34
-24 16 -27 15 -55 -5 -60 -45 -136 -13 -142 60 -3 31 -7 36 -30 39 -19 2 -28
-1 -28 -11 0 -25 -47 -59 -84 -60 -40 -1 -86 34 -86 65 0 13 -8 18 -30 18 -20
0 -30 -5 -30 -15z m114 -181 c10 -4 16 -18 16 -35 0 -25 -4 -29 -30 -29 -51 0
-133 -22 -191 -51 -56 -28 -57 -28 -74 -9 -15 16 -15 22 -5 35 23 27 135 74
200 83 36 5 66 10 67 11 1 0 8 -2 17 -5z m144 -187 c55 -27 127 -104 154 -164
31 -69 31 -190 0 -257 -69 -151 -228 -233 -381 -196 -198 47 -311 271 -229
452 81 176 286 250 456 165z m286 -87 c26 -52 43 -115 49 -182 l5 -48 -32 0
c-31 0 -32 0 -43 74 -7 43 -25 101 -42 134 l-30 59 22 22 c21 20 23 21 35 4 8
-10 24 -38 36 -63z m-856 -267 c7 -47 24 -101 41 -136 l30 -57 -21 -20 c-26
-24 -33 -20 -62 38 -34 67 -56 148 -56 204 0 46 1 48 28 48 28 0 29 -2 40 -77z
m687 -313 c14 -16 15 -23 6 -34 -31 -37 -172 -86 -248 -86 -41 0 -43 2 -43 29
0 28 2 29 71 39 42 6 95 23 128 40 70 36 65 36 86 12z"/>
<path d="M4145 8006 c6 -3 96 -10 200 -16 489 -29 893 -111 1290 -261 459
-174 877 -467 1134 -794 83 -105 91 -112 46 -40 -117 188 -310 398 -491 535
-398 301 -898 482 -1534 555 -121 14 -670 32 -645 21z"/>
<path d="M9640 7963 c-19 -1 -84 -8 -145 -13 -660 -63 -1270 -310 -1650 -670
-139 -131 -267 -285 -344 -415 -23 -39 -31 -57 -19 -41 203 262 368 418 613
581 519 344 1180 530 1990 558 44 2 -30 3 -165 3 -135 1 -261 -1 -280 -3z"/>
<path d="M4270 7714 c769 -66 1426 -234 1945 -499 167 -85 346 -197 456 -285
50 -41 40 -29 -47 57 -425 417 -1199 676 -2194 733 -256 14 -355 11 -160 -6z"/>
<path d="M9740 7679 c-925 -68 -1636 -319 -2063 -728 -32 -31 -68 -69 -79 -86
-20 -29 -20 -29 18 6 165 151 466 326 774 449 478 193 980 303 1655 363 22 2
-12 4 -75 4 -63 0 -167 -4 -230 -8z"/>
<path d="M4158 7441 c-64 -3 -119 -9 -122 -12 -4 -3 74 -9 171 -13 433 -17
960 -78 1338 -156 339 -70 685 -184 893 -296 45 -24 82 -43 82 -41 0 4 -115
82 -179 122 -463 287 -1299 438 -2183 396z"/>
<path d="M9420 7399 c-625 -40 -1163 -191 -1518 -428 -111 -75 -126 -93 -35
-42 223 122 549 229 933 305 397 80 669 111 1335 153 l120 7 -100 7 c-139 9
-573 8 -735 -2z"/>
<path d="M4275 7170 c-113 -5 -102 -6 165 -18 612 -27 1214 -112 1783 -251 64
-15 117 -26 117 -24 0 9 -191 93 -278 122 -424 141 -1081 204 -1787 171z"/>
<path d="M9260 7133 c-394 -21 -738 -76 -982 -157 -130 -42 -315 -123 -305
-132 2 -3 58 9 124 25 557 141 1228 233 1803 249 236 6 252 8 150 13 -115 6
-687 8 -790 2z"/>
<path d="M4725 6930 c-66 -4 -187 -14 -270 -22 l-150 -13 525 -6 c490 -6 782
-19 1245 -54 104 -7 191 -13 192 -11 12 11 -328 70 -530 92 -164 18 -821 27
-1012 14z"/>
<path d="M8837 6900 c-97 -5 -241 -16 -320 -25 -137 -15 -457 -72 -467 -82 -3
-3 36 -3 85 1 610 45 1262 71 1615 63 l235 -6 -120 14 c-282 32 -746 48 -1028
35z"/>
<path d="M4238 6883 c12 -2 30 -2 40 0 9 3 -1 5 -23 4 -22 0 -30 -2 -17 -4z"/>
<path d="M10028 6843 c6 -2 18 -2 25 0 6 3 1 5 -13 5 -14 0 -19 -2 -12 -5z"/>
<path d="M3533 6683 c-61 -46 -63 -48 -63 -93 0 -45 1 -47 64 -93 l64 -47
1420 0 1420 0 49 -122 49 -123 620 -3 619 -2 55 125 54 125 1447 0 1446 0 45
48 c43 46 44 48 39 99 -5 42 -13 59 -44 92 l-38 41 -1552 0 -1552 0 -73 -135
-73 -135 -372 0 -373 0 -84 135 -83 135 -1511 0 -1511 -1 -62 -46z"/>
<path d="M5280 5609 c-113 -22 -213 -97 -262 -197 -31 -62 -33 -74 -33 -167 0
-87 3 -107 26 -156 15 -31 43 -74 63 -96 63 -70 191 -123 294 -123 62 0 168
27 237 60 l65 31 0 145 0 144 -80 0 -80 0 0 -91 0 -90 -37 -16 c-86 -35 -167
-25 -230 30 -154 136 -44 398 158 374 47 -6 119 -36 150 -64 15 -12 22 -7 70
48 62 71 60 79 -22 120 -105 54 -210 69 -319 48z"/>
<path d="M10520 5610 c-115 -25 -221 -106 -268 -208 -24 -50 -27 -70 -27 -157
0 -87 3 -107 26 -156 15 -31 43 -74 63 -96 63 -70 191 -123 294 -123 62 0 168
27 237 60 l65 31 0 145 0 144 -80 0 -80 0 0 -91 0 -90 -34 -14 c-88 -37 -170
-27 -233 28 -154 136 -45 398 156 374 49 -6 121 -36 152 -64 15 -12 22 -7 68
45 28 33 51 65 51 71 0 16 -74 60 -139 82 -66 23 -187 32 -251 19z"/>
<path d="M3500 5245 l0 -365 290 0 290 0 0 75 0 75 -195 0 -195 0 0 70 0 70
175 0 175 0 0 75 0 75 -175 0 -175 0 0 70 0 70 190 0 190 0 0 75 0 75 -285 0
-285 0 0 -365z"/>
<path d="M4200 5245 l0 -365 90 0 90 0 2 216 3 215 163 -215 163 -216 84 0 85
0 0 365 0 365 -90 0 -90 0 -2 -217 -3 -218 -165 218 -164 217 -83 0 -83 0 0
-365z"/>
<path d="M5800 5245 l0 -365 95 0 95 0 0 365 0 365 -95 0 -95 0 0 -365z"/>
<path d="M6130 5245 l0 -365 90 0 90 0 2 215 3 215 55 -72 c30 -40 104 -137
164 -215 l108 -143 84 0 84 0 -2 363 -3 362 -87 3 -88 3 -2 -218 -3 -217 -165
217 -165 217 -82 0 -83 0 0 -365z"/>
<path d="M6950 5245 l0 -365 290 0 290 0 0 75 0 75 -195 0 -195 0 0 70 0 70
175 0 175 0 0 75 0 75 -175 0 -175 0 0 70 0 70 190 0 190 0 0 75 0 75 -285 0
-285 0 0 -365z"/>
<path d="M7650 5245 l0 -365 293 0 292 0 -3 75 -4 75 -194 0 -194 0 0 70 0 70
175 0 175 0 0 75 0 75 -175 0 -175 0 0 70 0 70 190 0 190 0 0 75 0 75 -285 0
-285 0 0 -365z"/>
<path d="M8350 5245 l0 -365 95 0 95 0 0 100 0 100 73 0 72 0 50 -100 50 -99
108 -1 107 0 -24 38 c-13 20 -46 72 -74 115 l-50 79 48 46 c115 112 103 313
-24 398 -69 45 -124 54 -342 54 l-184 0 0 -365z m421 177 c22 -25 29 -42 29
-75 0 -85 -48 -117 -175 -117 l-85 0 0 116 0 116 101 -4 c99 -3 101 -3 130
-36z"/>
<path d="M9110 5245 l0 -365 95 0 95 0 0 365 0 365 -95 0 -95 0 0 -365z"/>
<path d="M9440 5245 l0 -365 90 0 90 0 0 217 0 216 46 -59 c26 -32 100 -130
166 -216 l119 -158 85 0 84 0 0 365 0 365 -90 0 -90 0 -2 -217 -3 -217 -106
140 c-58 76 -132 174 -165 217 l-58 77 -83 0 -83 0 0 -365z"/>
<path d="M4210 4472 c0 -134 5 -253 12 -287 17 -84 60 -143 132 -179 51 -27
68 -30 145 -30 77 0 95 3 147 29 71 36 118 93 133 165 14 63 15 530 2 530 -6
0 -11 -109 -13 -267 -3 -253 -4 -270 -25 -309 -59 -111 -200 -161 -339 -119
-64 19 -116 63 -145 122 -23 46 -24 58 -27 311 -2 152 -7 262 -13 262 -5 0 -9
-95 -9 -228z"/>
<path d="M5030 4335 c0 -234 4 -365 10 -365 6 0 11 129 12 352 l3 352 77 -104
c42 -58 157 -215 255 -350 99 -135 187 -246 196 -248 16 -3 17 23 17 362 0
234 -4 366 -10 366 -6 0 -11 -129 -12 -352 l-3 -353 -204 280 c-113 154 -229
313 -258 353 -29 39 -60 72 -68 72 -13 0 -15 -48 -15 -365z"/>
<path d="M5860 4335 c0 -237 4 -365 10 -365 6 0 10 128 10 365 0 237 -4 365
-10 365 -6 0 -10 -128 -10 -365z"/>
<path d="M6183 4339 c84 -200 157 -364 162 -366 11 -3 318 717 310 726 -11 10
-27 -25 -160 -349 -76 -184 -141 -338 -144 -343 -4 -4 -72 149 -152 340 -79
191 -149 348 -156 350 -6 2 57 -159 140 -358z"/>
<path d="M6800 4335 l0 -365 235 0 c150 0 235 4 235 10 0 6 -82 10 -225 10
l-225 0 0 170 0 170 195 0 c123 0 195 4 195 10 0 6 -72 10 -195 10 l-195 0 0
165 0 165 221 0 c144 0 218 3 214 10 -4 6 -92 10 -231 10 l-224 0 0 -365z"/>
<path d="M7470 4335 c0 -237 4 -365 10 -365 6 0 10 48 10 125 l0 125 134 0
c74 0 140 2 148 5 11 4 69 -69 192 -240 8 -11 18 -17 21 -13 4 4 -33 62 -83
130 l-90 123 41 18 c133 58 185 218 111 344 -49 85 -138 113 -354 113 l-140 0
0 -365z m395 314 c71 -36 106 -89 112 -170 4 -56 1 -71 -24 -118 -22 -44 -39
-61 -83 -85 -54 -30 -58 -31 -217 -35 l-163 -3 0 222 0 222 163 -4 c150 -3
166 -5 212 -29z"/>
<path d="M8430 4685 c-73 -21 -127 -54 -177 -108 -132 -143 -133 -350 -1 -485
110 -114 262 -148 410 -92 29 11 67 31 83 46 36 31 30 29 -60 -16 -64 -32 -76
-35 -160 -35 -76 0 -99 4 -146 27 -79 36 -133 89 -171 166 -29 58 -33 76 -33
147 0 66 5 90 27 137 52 112 164 192 287 204 77 9 174 -16 232 -58 22 -16 44
-27 47 -23 10 9 -23 33 -94 66 -76 37 -166 45 -244 24z"/>
<path d="M8960 4335 c0 -237 4 -365 10 -365 6 0 10 128 10 365 0 237 -4 365
-10 365 -6 0 -10 -128 -10 -365z"/>
<path d="M9130 4690 c0 -6 48 -10 125 -10 l125 0 0 -355 c0 -230 4 -355 10
-355 6 0 10 125 10 355 l0 355 125 0 c77 0 125 4 125 10 0 6 -93 10 -260 10
-167 0 -260 -4 -260 -10z"/>
<path d="M9693 4686 c3 -8 69 -109 146 -225 l141 -211 0 -140 c0 -87 4 -140
10 -140 6 0 10 54 10 142 l0 141 92 141 c50 78 115 178 145 224 29 45 48 82
43 82 -6 0 -73 -94 -148 -210 -75 -115 -140 -210 -143 -210 -4 0 -69 94 -145
210 -77 115 -143 210 -148 210 -4 0 -6 -6 -3 -14z"/>
</g>
</svg>
